<svg width="12" height="12" viewBox="0 0 12 12" fill="none" xmlns="http://www.w3.org/2000/svg">
<path d="M11.9699 4.37083C11.8949 4.14008 11.6902 3.97672 11.4491 3.9549L8.15956 3.65626L6.85953 0.612625C6.76354 0.389012 6.54515 0.24469 6.30206 0.24469C6.05897 0.24469 5.84049 0.389012 5.74512 0.612625L4.44509 3.65626L1.15506 3.9549C0.913887 3.97716 0.709663 4.14052 0.634198 4.37083C0.559168 4.60157 0.62846 4.85465 0.810862 5.01462L3.29746 7.19502L2.56429 10.4242C2.51065 10.6616 2.6028 10.9071 2.79981 11.0496C2.90571 11.1265 3.03012 11.1649 3.15497 11.1649C3.26225 11.1649 3.36962 11.1364 3.46552 11.079L6.30206 9.38298L9.13808 11.079C9.34613 11.2034 9.60773 11.192 9.80431 11.0496C10.0013 10.9071 10.0935 10.6616 10.0398 10.4242L9.30666 7.19502L11.7933 5.01462C11.9756 4.85465 12.045 4.60209 11.9699 4.37083Z" fill="#DDDDDD"/>
</svg>
