<svg width="13" height="12" viewBox="0 0 13 12" fill="none" xmlns="http://www.w3.org/2000/svg">
<path d="M12.3188 4.37083C12.2438 4.14008 12.0391 3.97672 11.7979 3.9549L8.50843 3.65626L7.2084 0.612625C7.11242 0.389012 6.89402 0.24469 6.65094 0.24469C6.40785 0.24469 6.18937 0.389012 6.09399 0.612625L4.79396 3.65626L1.50394 3.9549C1.26276 3.97716 1.05854 4.14052 0.983075 4.37083C0.908045 4.60157 0.977337 4.85465 1.15974 5.01462L3.64634 7.19502L2.91317 10.4242C2.85952 10.6616 2.95168 10.9071 3.14869 11.0496C3.25458 11.1265 3.379 11.1649 3.50384 11.1649C3.61113 11.1649 3.7185 11.1364 3.8144 11.079L6.65094 9.38298L9.48695 11.079C9.695 11.2034 9.95661 11.192 10.1532 11.0496C10.3502 10.9071 10.4423 10.6616 10.3887 10.4242L9.65553 7.19502L12.1421 5.01462C12.3244 4.85465 12.3938 4.60209 12.3188 4.37083Z" fill="#01751B"/>
</svg>
