<svg width="17" height="16" viewBox="0 0 17 16" fill="none" xmlns="http://www.w3.org/2000/svg">
<path d="M15.0966 2.60611L15.0965 2.60609C14.5258 2.04881 13.6928 1.71423 12.4653 1.71423C12.1905 1.71423 11.8971 1.76163 11.5814 1.8668L15.0966 2.60611ZM15.0966 2.60611C15.6629 3.15912 16 3.96338 16 5.15388C16 6.18285 15.47 7.36422 14.127 8.70913L8.50034 14.1282L2.85732 8.68397L2.82365 8.65149L2.7871 8.6223C2.78718 8.62236 2.78605 8.62146 2.78361 8.6194L2.77338 8.61052C2.7644 8.60259 2.75246 8.59171 2.73729 8.57737C2.70676 8.54852 2.66776 8.51001 2.6194 8.46033C2.54522 8.3838 2.39581 8.2103 2.15651 7.91115L2.15647 7.91111C1.94294 7.6442 1.7537 7.3725 1.58805 7.09639L1.58803 7.09637C1.44507 6.8581 1.30387 6.54632 1.17238 6.14889L1.17234 6.14879C1.05343 5.78948 1 5.45913 1 5.1539C1 3.96335 1.33703 3.15911 1.9034 2.60612L1.90343 2.60609M15.0966 2.60611L1.90343 2.60609M10.6768 2.30371L10.6762 2.30412C10.3444 2.52217 10.0688 2.72073 9.84521 2.8994C9.62104 3.07885 9.40829 3.26925 9.20705 3.47046L8.50015 4.17725L7.7931 3.47061C7.59154 3.26917 7.37874 3.0787 7.15457 2.89928L10.6768 2.30371ZM10.6768 2.30371C10.953 2.12188 11.2538 1.97603 11.5813 1.86683L10.6768 2.30371ZM6.3235 2.30393L6.32337 2.30384C6.04682 2.1219 5.74612 1.97614 5.41854 1.86686L6.3235 2.30393ZM6.3235 2.30393C6.65557 2.52233 6.9311 2.72064 7.1542 2.89898L6.3235 2.30393ZM1.90343 2.60609C2.47407 2.04888 3.30716 1.71423 4.53454 1.71423C4.80917 1.71423 5.1025 1.76162 5.41822 1.86675L1.90343 2.60609Z" fill="white" stroke="#333333" stroke-width="2"/>
</svg>
