<svg width="50" height="50" viewBox="0 0 50 50" fill="none" xmlns="http://www.w3.org/2000/svg">
<circle cx="25" cy="25" r="25" fill="#5D83E8"/>
<path d="M22.3502 21.1604H28.2704C28.6516 21.1604 28.9603 20.8514 28.9603 20.4705C28.9603 20.0893 28.6516 19.7803 28.2704 19.7803H22.3502C21.969 19.7803 21.6602 20.0893 21.6602 20.4705C21.6602 20.8514 21.969 21.1604 22.3502 21.1604Z" fill="white" stroke="white" stroke-width="0.2"/>
<path d="M22.3502 24.9547H28.2704C28.6516 24.9547 28.9603 24.646 28.9603 24.2648C28.9603 23.8838 28.6516 23.5748 28.2704 23.5748H22.3502C21.969 23.5748 21.6602 23.8838 21.6602 24.2648C21.6602 24.646 21.969 24.9547 22.3502 24.9547Z" fill="white" stroke="white" stroke-width="0.2"/>
<path d="M40.6634 30.9924C40.6634 30.7361 40.5212 30.501 40.2942 30.3819L33.4181 26.7799V19.3758L33.8424 19.7209C33.9836 19.8448 34.1694 19.906 34.3567 19.8898C34.5439 19.874 34.7167 19.782 34.8346 19.6357C34.9528 19.4894 35.0059 19.3014 34.9821 19.1149C34.9583 18.9284 34.8594 18.7597 34.7083 18.6478L25.738 11.4026L25.7383 11.4029C25.4856 11.199 25.1248 11.199 24.8721 11.4029L15.9019 18.648L15.9022 18.6478C15.751 18.7597 15.6521 18.9284 15.6283 19.1149C15.6045 19.3014 15.6577 19.4894 15.7758 19.6357C15.8937 19.782 16.0665 19.874 16.2538 19.8898C16.441 19.906 16.6268 19.8448 16.768 19.7209L17.1923 19.3758V26.7972L10.2922 30.7372C10.078 30.8609 9.94634 31.09 9.9473 31.3374V38.5826H8.75V39.9625H41.8708V38.5826H40.6631L40.6634 30.9924ZM39.2835 31.41V38.583H37.3859V33.6666C37.3859 33.4835 37.3132 33.308 37.1837 33.1786C37.0545 33.0493 36.8788 32.9766 36.6959 32.9766H33.4184V28.3363L39.2835 31.41ZM33.4184 34.3563H36.006V38.5828H33.4184V34.3563ZM25.3107 12.842L32.0384 18.2621V38.5831H28.7609V33.3148C28.7609 32.0822 28.1034 30.9431 27.0358 30.3268C25.9683 29.7105 24.6533 29.7105 23.5857 30.3268C22.5182 30.9431 21.8607 32.0822 21.8607 33.3148V38.5831H18.5832V18.2621L25.3107 12.842ZM27.3809 38.5931H23.2406V33.3145C23.2406 32.575 23.6353 31.8915 24.2757 31.5216C24.9163 31.1519 25.7052 31.1519 26.3459 31.5216C26.9863 31.8915 27.3809 32.575 27.3809 33.3145L27.3809 38.5931ZM17.1964 38.5931H14.7294V34.3563H17.2031L17.1964 38.5931ZM11.338 31.738L17.2031 28.388V32.9766H14.0394C13.6584 32.9766 13.3494 33.2854 13.3494 33.6666V38.583H11.338V31.738Z" fill="white" stroke="white" stroke-width="0.2"/>
</svg>
