<svg width="10" height="14" viewBox="0 0 10 14" fill="none" xmlns="http://www.w3.org/2000/svg">
<path d="M5.07373 1C2.82562 1 1 2.82564 1 5.07373C1 5.92113 1.5398 7.10823 1.89115 7.76088L4.94645 13.435C4.97203 13.4813 5.02084 13.51 5.07371 13.51C5.12659 13.51 5.1754 13.4813 5.20098 13.435L8.25627 7.76088C8.60761 7.10823 9.14743 5.92116 9.14743 5.07373C9.14743 2.82562 7.32179 1 5.0737 1H5.07373ZM5.07373 1.29095C7.16463 1.29095 8.85648 2.98282 8.85648 5.0737C8.85648 5.79009 8.34012 6.99129 8.00178 7.61978L5.07378 13.0575L2.14579 7.61978C1.80734 6.99129 1.29098 5.79009 1.29098 5.0737C1.29098 2.9828 2.98285 1.29095 5.07373 1.29095ZM5.07373 3.03681C3.95049 3.03681 3.03692 3.95049 3.03692 5.07362C3.03692 6.19686 3.9506 7.11044 5.07373 7.11044C6.19697 7.11044 7.11054 6.19676 7.11054 5.07362C7.11054 3.95049 6.19686 3.03681 5.07373 3.03681ZM5.07373 3.32777C6.03968 3.32777 6.81959 4.1077 6.81959 5.07362C6.81959 6.03958 6.03966 6.81948 5.07373 6.81948C4.1078 6.81948 3.32787 6.03955 3.32787 5.07362C3.32787 4.10767 4.1078 3.32777 5.07373 3.32777Z" fill="#00529B" stroke="#333333" stroke-width="0.55"/>
</svg>
