<svg width="24" height="24" viewBox="0 0 24 24" fill="none" xmlns="http://www.w3.org/2000/svg">
<path fill-rule="evenodd" clip-rule="evenodd" d="M9.2354 3.0476C9.35113 2.9653 9.51166 2.99241 9.59395 3.10813C9.60625 3.12542 9.6192 3.14339 9.63266 3.16206C9.77646 3.36159 9.97765 3.64074 10.0413 4.00992C10.1136 4.42888 10.0065 4.91852 9.59764 5.52536C9.40763 5.80736 9.40243 6.03959 9.46096 6.21333C9.52324 6.39819 9.66862 6.54813 9.82583 6.63001C9.95178 6.69561 10.0007 6.85088 9.93511 6.97683C9.86951 7.10278 9.71424 7.1517 9.58829 7.08611C9.33067 6.95193 9.08422 6.70578 8.97363 6.37751C8.85929 6.03811 8.90018 5.64018 9.17118 5.238C9.53104 4.70394 9.57767 4.34737 9.53455 4.09731C9.4919 3.84998 9.35838 3.66308 9.20789 3.45245C9.19696 3.43715 9.18595 3.42173 9.17487 3.40615C9.09257 3.29043 9.11967 3.1299 9.2354 3.0476Z" fill="#333333"/>
<path fill-rule="evenodd" clip-rule="evenodd" d="M12.2602 3.0476C12.376 2.9653 12.5365 2.99241 12.6188 3.10813C12.6311 3.12542 12.644 3.14339 12.6575 3.16206C12.8013 3.36159 13.0025 3.64074 13.0662 4.00992C13.1384 4.42888 13.0314 4.91852 12.6225 5.52536C12.4325 5.80736 12.4273 6.03959 12.4858 6.21333C12.5481 6.39819 12.6935 6.54813 12.8507 6.63001C12.9766 6.69561 13.0255 6.85088 12.96 6.97683C12.8944 7.10278 12.7391 7.1517 12.6131 7.08611C12.3555 6.95193 12.1091 6.70578 11.9985 6.37751C11.8841 6.03811 11.925 5.64018 12.196 5.238C12.5559 4.70394 12.6025 4.34737 12.5594 4.09731C12.5167 3.84998 12.3832 3.66308 12.2327 3.45245C12.2218 3.43715 12.2108 3.42173 12.1997 3.40615C12.1174 3.29043 12.1445 3.1299 12.2602 3.0476Z" fill="#333333"/>
<path fill-rule="evenodd" clip-rule="evenodd" d="M15.4867 3.11979C15.6024 3.03749 15.763 3.06459 15.8453 3.18032C15.8575 3.19761 15.8705 3.21558 15.884 3.23425C16.0278 3.43378 16.229 3.71293 16.2926 4.08211C16.3649 4.50107 16.2578 4.99071 15.8489 5.59755C15.6589 5.87955 15.6537 6.11178 15.7123 6.28552C15.7745 6.47038 15.9199 6.62032 16.0771 6.7022C16.2031 6.7678 16.252 6.92307 16.1864 7.04902C16.1208 7.17497 15.9655 7.22389 15.8396 7.15829C15.582 7.02412 15.3355 6.77796 15.2249 6.44969C15.1106 6.1103 15.1515 5.71237 15.4225 5.31019C15.7823 4.77613 15.829 4.41956 15.7858 4.1695C15.7432 3.92217 15.6097 3.73527 15.4592 3.52464C15.4483 3.50934 15.4372 3.49392 15.4262 3.47834C15.3439 3.36262 15.371 3.20209 15.4867 3.11979Z" fill="#333333"/>
<path fill-rule="evenodd" clip-rule="evenodd" d="M19.9701 19.1988H4.54274C3.97472 19.1988 3.51425 19.6592 3.51425 20.2273C3.51425 20.7953 3.97472 21.2558 4.54274 21.2558H19.9701C20.5381 21.2558 20.9986 20.7953 20.9986 20.2273C20.9986 19.6592 20.5381 19.1988 19.9701 19.1988ZM4.54274 18.6845C3.69071 18.6845 3 19.3752 3 20.2273C3 21.0793 3.69071 21.77 4.54274 21.77H19.9701C20.8221 21.77 21.5128 21.0793 21.5128 20.2273C21.5128 19.3752 20.8221 18.6845 19.9701 18.6845H4.54274Z" fill="#333333"/>
<path d="M20.48 18.9484C20.4107 16.948 19.5148 15.0512 17.9815 13.6586C16.4482 12.266 14.3975 11.4866 12.2626 11.4851C10.1277 11.4836 8.07582 12.2601 6.54026 13.6505C5.0047 15.041 4.10573 16.9365 4.03324 18.9368L4.60666 18.9551C4.6741 17.0943 5.51038 15.3309 6.93886 14.0374C8.36735 12.7439 10.2762 12.0216 12.2622 12.023C14.2482 12.0244 16.1559 12.7494 17.5823 14.0449C19.0087 15.3404 19.8421 17.105 19.9066 18.9659L20.48 18.9484Z" fill="#333333"/>
<path fill-rule="evenodd" clip-rule="evenodd" d="M4.03324 18.9368L4.60666 18.9551C4.67368 17.1058 5.50005 15.3527 6.9124 14.0615C6.9212 14.0534 6.93002 14.0454 6.93886 14.0374C8.36735 12.7439 10.2762 12.0216 12.2622 12.023C12.2622 12.023 12.2622 12.023 12.2622 12.023C14.2482 12.0244 16.1559 12.7494 17.5823 14.0449C17.5911 14.0529 17.5999 14.061 17.6087 14.069C19.0189 15.3623 19.8425 17.1166 19.9066 18.9659C19.9066 18.9659 19.9066 18.9659 19.9066 18.9659L20.48 18.9484C20.48 18.9476 20.48 18.9468 20.4799 18.946C20.4679 18.6012 20.4313 18.2594 20.371 17.9228C20.0821 16.3076 19.2499 14.8106 17.9815 13.6586C17.9727 13.6506 17.9638 13.6426 17.9549 13.6346C16.4245 12.257 14.3852 11.4866 12.2626 11.4851C12.2626 11.4851 12.2626 11.4851 12.2626 11.4851C10.1401 11.4836 8.09944 12.2512 6.56684 13.6266C6.55796 13.6345 6.5491 13.6425 6.54026 13.6505C5.27004 14.8007 4.43542 16.2965 4.14387 17.9113C4.08312 18.2478 4.04594 18.5895 4.03333 18.9343C4.0333 18.9352 4.03327 18.936 4.03324 18.9368Z" fill="#333333"/>
<path fill-rule="evenodd" clip-rule="evenodd" d="M11.0065 9.63767C10.6797 9.92226 10.4529 10.3575 10.4566 10.9693C10.4574 11.1113 10.343 11.2271 10.201 11.228C10.059 11.2288 9.94317 11.1144 9.94232 10.9724C9.93784 10.2185 10.2233 9.63777 10.6689 9.24983C11.1091 8.86654 11.6889 8.6854 12.2585 8.68993C12.8281 8.69445 13.4063 8.88468 13.8447 9.26873C14.2883 9.65729 14.5752 10.2328 14.5707 10.9721C14.5698 11.1141 14.454 11.2285 14.312 11.2276C14.17 11.2268 14.0556 11.1109 14.0564 10.9689C14.0601 10.3756 13.8347 9.94357 13.5059 9.65557C13.1719 9.36306 12.7175 9.20783 12.2545 9.20415C11.7915 9.20048 11.3387 9.34842 11.0065 9.63767Z" fill="#333333"/>
<path d="M9.59395 3.10813L9.39022 3.25302L9.39022 3.25302L9.59395 3.10813ZM9.2354 3.0476L9.38028 3.25134L9.2354 3.0476ZM9.63266 3.16206L9.83547 3.01589L9.83547 3.01589L9.63266 3.16206ZM10.0413 4.00992L10.2877 3.96743L10.0413 4.00992ZM9.59764 5.52536L9.39032 5.38566L9.59764 5.52536ZM9.46096 6.21333L9.69788 6.13351L9.46096 6.21333ZM9.82583 6.63001L9.71035 6.85174H9.71035L9.82583 6.63001ZM9.58829 7.08611L9.47281 7.30784L9.58829 7.08611ZM8.97363 6.37751L8.73671 6.45732V6.45732L8.97363 6.37751ZM9.17118 5.238L8.96385 5.0983L9.17118 5.238ZM9.53455 4.09731L9.78091 4.05483L9.53455 4.09731ZM9.20789 3.45245L9.00447 3.59777L9.20789 3.45245ZM9.17487 3.40615L9.37861 3.26127L9.17487 3.40615ZM12.6188 3.10813L12.4151 3.25302V3.25302L12.6188 3.10813ZM12.2602 3.0476L12.4051 3.25134L12.2602 3.0476ZM12.6575 3.16206L12.8603 3.01589V3.01589L12.6575 3.16206ZM13.0662 4.00992L13.3125 3.96743L13.0662 4.00992ZM12.6225 5.52536L12.4152 5.38566L12.6225 5.52536ZM12.4858 6.21333L12.7227 6.13351L12.4858 6.21333ZM12.8507 6.63001L12.7352 6.85174L12.8507 6.63001ZM12.6131 7.08611L12.4977 7.30784L12.6131 7.08611ZM11.9985 6.37751L11.7616 6.45732V6.45732L11.9985 6.37751ZM12.196 5.238L11.9887 5.0983L12.196 5.238ZM12.5594 4.09731L12.8058 4.05483L12.5594 4.09731ZM12.2327 3.45245L12.0293 3.59777L12.2327 3.45245ZM12.1997 3.40615L12.4035 3.26127L12.1997 3.40615ZM15.8453 3.18032L15.6415 3.3252V3.3252L15.8453 3.18032ZM15.4867 3.11979L15.6316 3.32353V3.32353L15.4867 3.11979ZM15.884 3.23425L16.0868 3.08808V3.08808L15.884 3.23425ZM16.2926 4.08211L16.539 4.03962L16.2926 4.08211ZM15.8489 5.59755L15.6416 5.45785L15.8489 5.59755ZM15.7123 6.28552L15.9492 6.2057V6.2057L15.7123 6.28552ZM16.0771 6.7022L15.9617 6.92393V6.92393L16.0771 6.7022ZM15.8396 7.15829L15.7241 7.38002H15.7241L15.8396 7.15829ZM15.2249 6.44969L14.988 6.52951V6.52951L15.2249 6.44969ZM15.4225 5.31019L15.2152 5.17049V5.17049L15.4225 5.31019ZM15.7858 4.1695L16.0322 4.12701L15.7858 4.1695ZM15.4592 3.52464L15.2558 3.66996L15.4592 3.52464ZM15.4262 3.47834L15.6299 3.33346L15.4262 3.47834ZM20.48 18.9484L20.4876 19.1983L20.7385 19.1907L20.7299 18.9399L20.48 18.9484ZM6.54026 13.6505L6.70807 13.8358H6.70807L6.54026 13.6505ZM4.03324 18.9368L3.7834 18.9278L3.77431 19.1787L4.02528 19.1867L4.03324 18.9368ZM4.60666 18.9551L4.5987 19.205L4.84748 19.2129L4.8565 18.9642L4.60666 18.9551ZM6.93886 14.0374L6.77106 13.8521L6.77106 13.8521L6.93886 14.0374ZM6.9124 14.0615L7.08109 14.246L7.08109 14.246L6.9124 14.0615ZM17.6087 14.069L17.7777 13.8848L17.7777 13.8848L17.6087 14.069ZM20.4799 18.946L20.2301 18.9548L20.2301 18.9549L20.4799 18.946ZM20.371 17.9228L20.6171 17.8788V17.8788L20.371 17.9228ZM17.9549 13.6346L17.7877 13.8204L17.7877 13.8204L17.9549 13.6346ZM6.56684 13.6266L6.39986 13.4405L6.39986 13.4405L6.56684 13.6266ZM4.14387 17.9113L3.89785 17.8669L4.14387 17.9113ZM4.03333 18.9343L4.28316 18.9435L4.28316 18.9435L4.03333 18.9343ZM10.4566 10.9693L10.7066 10.9678L10.4566 10.9693ZM11.0065 9.63767L10.8424 9.44912L11.0065 9.63767ZM10.201 11.228L10.1995 10.978H10.1995L10.201 11.228ZM9.94232 10.9724L10.1923 10.9709L9.94232 10.9724ZM10.6689 9.24983L10.5047 9.06128L10.6689 9.24983ZM12.2585 8.68993L12.2605 8.43993L12.2585 8.68993ZM13.8447 9.26873L14.0094 9.08067L13.8447 9.26873ZM14.5707 10.9721L14.3207 10.9706V10.9706L14.5707 10.9721ZM14.0564 10.9689L14.3064 10.9705L14.0564 10.9689ZM13.5059 9.65557L13.3412 9.84363L13.5059 9.65557ZM12.2545 9.20415L12.2525 9.45415L12.2545 9.20415ZM9.79769 2.96325C9.63538 2.735 9.31877 2.68155 9.09052 2.84386L9.38028 3.25134C9.38349 3.24906 9.38794 3.24981 9.39022 3.25302L9.79769 2.96325ZM9.83547 3.01589C9.82192 2.99708 9.80944 2.97977 9.79769 2.96325L9.39022 3.25302C9.40305 3.27106 9.41648 3.2897 9.42984 3.30823L9.83547 3.01589ZM10.2877 3.96743C10.2131 3.53478 9.97765 3.21316 9.83547 3.01589L9.42984 3.30823C9.57528 3.51002 9.74223 3.74669 9.79495 4.0524L10.2877 3.96743ZM9.80497 5.66506C10.2376 5.02295 10.3741 4.4686 10.2877 3.96743L9.79495 4.0524C9.85302 4.38915 9.77546 4.81409 9.39032 5.38566L9.80497 5.66506ZM9.69788 6.13351C9.66642 6.04013 9.65445 5.88845 9.80497 5.66506L9.39032 5.38566C9.16082 5.72626 9.13845 6.03906 9.22405 6.29314L9.69788 6.13351ZM9.94132 6.40828C9.83308 6.35191 9.73672 6.24881 9.69788 6.13351L9.22405 6.29314C9.30976 6.54756 9.50416 6.74435 9.71035 6.85174L9.94132 6.40828ZM10.1568 7.09231C10.2862 6.84391 10.1897 6.53766 9.94131 6.40828L9.71035 6.85174C9.71384 6.85356 9.7152 6.85786 9.71338 6.86135L10.1568 7.09231ZM9.47281 7.30784C9.72121 7.43721 10.0275 7.34072 10.1568 7.09231L9.71338 6.86135C9.71156 6.86484 9.70726 6.86619 9.70377 6.86438L9.47281 7.30784ZM8.73671 6.45732C8.87082 6.8554 9.16648 7.14829 9.47281 7.30784L9.70377 6.86438C9.49486 6.75557 9.29762 6.55615 9.21055 6.29769L8.73671 6.45732ZM8.96385 5.0983C8.65356 5.5588 8.5952 6.03728 8.73671 6.45732L9.21055 6.29769C9.12338 6.03894 9.14681 5.72156 9.37851 5.3777L8.96385 5.0983ZM9.28818 4.1398C9.31717 4.30787 9.29978 4.59977 8.96385 5.0983L9.37851 5.3777C9.76231 4.80811 9.83817 4.38686 9.78091 4.05483L9.28818 4.1398ZM9.00447 3.59777C9.1601 3.81561 9.25676 3.95759 9.28818 4.1398L9.78091 4.05483C9.72703 3.74237 9.55665 3.51056 9.41131 3.30712L9.00447 3.59777ZM8.97113 3.55104C8.98239 3.56687 8.99357 3.58251 9.00447 3.59777L9.41131 3.30712C9.40036 3.29179 9.3895 3.27659 9.37861 3.26127L8.97113 3.55104ZM9.09052 2.84386C8.86227 3.00618 8.80882 3.32279 8.97113 3.55104L9.37861 3.26127C9.37633 3.25807 9.37708 3.25362 9.38028 3.25134L9.09052 2.84386ZM12.8225 2.96325C12.6602 2.735 12.3436 2.68155 12.1154 2.84386L12.4051 3.25134C12.4083 3.24906 12.4128 3.24981 12.4151 3.25302L12.8225 2.96325ZM12.8603 3.01589C12.8468 2.99708 12.8343 2.97977 12.8225 2.96325L12.4151 3.25302C12.4279 3.27106 12.4413 3.2897 12.4547 3.30823L12.8603 3.01589ZM13.3125 3.96743C13.2379 3.53479 13.0025 3.21316 12.8603 3.01589L12.4547 3.30823C12.6001 3.51002 12.7671 3.74669 12.8198 4.0524L13.3125 3.96743ZM12.8298 5.66506C13.2625 5.02295 13.3989 4.4686 13.3125 3.96743L12.8198 4.0524C12.8779 4.38915 12.8003 4.81409 12.4152 5.38566L12.8298 5.66506ZM12.7227 6.13351C12.6913 6.04013 12.6793 5.88845 12.8298 5.66506L12.4152 5.38566C12.1857 5.72626 12.1633 6.03906 12.2489 6.29314L12.7227 6.13351ZM12.9662 6.40828C12.8579 6.35191 12.7616 6.24881 12.7227 6.13351L12.2489 6.29314C12.3346 6.54756 12.529 6.74435 12.7352 6.85174L12.9662 6.40828ZM13.1817 7.09231C13.3111 6.84391 13.2146 6.53766 12.9662 6.40828L12.7352 6.85174C12.7387 6.85356 12.74 6.85786 12.7382 6.86135L13.1817 7.09231ZM12.4977 7.30784C12.7461 7.43721 13.0523 7.34072 13.1817 7.09231L12.7382 6.86135C12.7364 6.86484 12.7321 6.86619 12.7286 6.86438L12.4977 7.30784ZM11.7616 6.45732C11.8957 6.8554 12.1913 7.14829 12.4977 7.30784L12.7286 6.86438C12.5197 6.75557 12.3225 6.55615 12.2354 6.29769L11.7616 6.45732ZM11.9887 5.0983C11.6784 5.5588 11.62 6.03728 11.7616 6.45732L12.2354 6.29769C12.1482 6.03894 12.1717 5.72156 12.4034 5.3777L11.9887 5.0983ZM12.313 4.1398C12.342 4.30787 12.3246 4.59977 11.9887 5.0983L12.4034 5.3777C12.7872 4.80811 12.863 4.38686 12.8058 4.05483L12.313 4.1398ZM12.0293 3.59777C12.1849 3.81561 12.2816 3.95759 12.313 4.1398L12.8058 4.05483C12.7519 3.74237 12.5815 3.51056 12.4362 3.30712L12.0293 3.59777ZM11.996 3.55104C12.0072 3.56687 12.0184 3.58251 12.0293 3.59777L12.4362 3.30712C12.4252 3.29179 12.4143 3.27659 12.4035 3.26127L11.996 3.55104ZM12.1154 2.84386C11.8871 3.00618 11.8337 3.32279 11.996 3.55104L12.4035 3.26127C12.4012 3.25807 12.4019 3.25362 12.4051 3.25134L12.1154 2.84386ZM16.049 3.03544C15.8867 2.80719 15.5701 2.75374 15.3418 2.91605L15.6316 3.32353C15.6348 3.32125 15.6392 3.322 15.6415 3.3252L16.049 3.03544ZM16.0868 3.08808C16.0732 3.06927 16.0607 3.05196 16.049 3.03544L15.6415 3.3252C15.6544 3.34325 15.6678 3.36189 15.6811 3.38042L16.0868 3.08808ZM16.539 4.03962C16.4644 3.60697 16.2289 3.28535 16.0868 3.08808L15.6811 3.38042C15.8266 3.58221 15.9935 3.81888 16.0463 4.12459L16.539 4.03962ZM16.0563 5.73725C16.4889 5.09514 16.6254 4.54079 16.539 4.03962L16.0463 4.12459C16.1043 4.46134 16.0268 4.88628 15.6416 5.45785L16.0563 5.73725ZM15.9492 6.2057C15.9177 6.11231 15.9057 5.96064 16.0563 5.73725L15.6416 5.45785C15.4121 5.79845 15.3897 6.11125 15.4753 6.36533L15.9492 6.2057ZM16.1926 6.48047C16.0844 6.4241 15.988 6.321 15.9492 6.2057L15.4753 6.36533C15.5611 6.61975 15.7555 6.81654 15.9617 6.92393L16.1926 6.48047ZM16.4081 7.1645C16.5375 6.9161 16.441 6.60985 16.1926 6.48047L15.9617 6.92393C15.9651 6.92575 15.9665 6.93005 15.9647 6.93354L16.4081 7.1645ZM15.7241 7.38002C15.9725 7.5094 16.2788 7.41291 16.4081 7.1645L15.9647 6.93354C15.9629 6.93703 15.9586 6.93838 15.9551 6.93657L15.7241 7.38002ZM14.988 6.52951C15.1221 6.92759 15.4178 7.22048 15.7241 7.38002L15.9551 6.93657C15.7462 6.82776 15.5489 6.62834 15.4618 6.36988L14.988 6.52951ZM15.2152 5.17049C14.9049 5.63099 14.8465 6.10946 14.988 6.52951L15.4618 6.36988C15.3747 6.11113 15.3981 5.79375 15.6298 5.44989L15.2152 5.17049ZM15.5395 4.21198C15.5685 4.38006 15.5511 4.67196 15.2152 5.17049L15.6298 5.44989C16.0136 4.8803 16.0895 4.45905 16.0322 4.12701L15.5395 4.21198ZM15.2558 3.66996C15.4114 3.8878 15.5081 4.02978 15.5395 4.21198L16.0322 4.12701C15.9783 3.81456 15.808 3.58275 15.6626 3.37931L15.2558 3.66996ZM15.2224 3.62323C15.2337 3.63906 15.2449 3.6547 15.2558 3.66996L15.6626 3.37931C15.6517 3.36398 15.6408 3.34878 15.6299 3.33346L15.2224 3.62323ZM15.3418 2.91605C15.1136 3.07837 15.0601 3.39498 15.2224 3.62323L15.6299 3.33346C15.6276 3.33025 15.6284 3.32581 15.6316 3.32353L15.3418 2.91605ZM4.54274 19.4488H19.9701V18.9488H4.54274V19.4488ZM3.76425 20.2273C3.76425 19.7973 4.11279 19.4488 4.54274 19.4488V18.9488C3.83665 18.9488 3.26425 19.5212 3.26425 20.2273H3.76425ZM4.54274 21.0058C4.11279 21.0058 3.76425 20.6572 3.76425 20.2273H3.26425C3.26425 20.9334 3.83665 21.5058 4.54274 21.5058V21.0058ZM19.9701 21.0058H4.54274V21.5058H19.9701V21.0058ZM20.7486 20.2273C20.7486 20.6572 20.4001 21.0058 19.9701 21.0058V21.5058C20.6762 21.5058 21.2486 20.9334 21.2486 20.2273H20.7486ZM19.9701 19.4488C20.4001 19.4488 20.7486 19.7973 20.7486 20.2273H21.2486C21.2486 19.5212 20.6762 18.9488 19.9701 18.9488V19.4488ZM3.25 20.2273C3.25 19.5133 3.82878 18.9345 4.54274 18.9345V18.4345C3.55264 18.4345 2.75 19.2372 2.75 20.2273H3.25ZM4.54274 21.52C3.82878 21.52 3.25 20.9412 3.25 20.2273H2.75C2.75 21.2174 3.55264 22.02 4.54274 22.02V21.52ZM19.9701 21.52H4.54274V22.02H19.9701V21.52ZM21.2628 20.2273C21.2628 20.9412 20.6841 21.52 19.9701 21.52V22.02C20.9602 22.02 21.7628 21.2174 21.7628 20.2273H21.2628ZM19.9701 18.9345C20.6841 18.9345 21.2628 19.5133 21.2628 20.2273H21.7628C21.7628 19.2372 20.9602 18.4345 19.9701 18.4345V18.9345ZM4.54274 18.9345H19.9701V18.4345H4.54274V18.9345ZM20.7299 18.9398C20.6582 16.8694 19.7309 14.9097 18.1496 13.4735L17.8134 13.8437C19.2987 15.1927 20.1633 17.0267 20.2302 18.9571L20.7299 18.9398ZM18.1496 13.4735C16.5688 12.0378 14.4577 11.2366 12.2628 11.2351L12.2624 11.7351C14.3373 11.7365 16.3276 12.4942 17.8134 13.8437L18.1496 13.4735ZM12.2628 11.2351C10.0679 11.2335 7.95556 12.0317 6.37246 13.4652L6.70807 13.8358C8.19608 12.4884 10.1876 11.7336 12.2624 11.7351L12.2628 11.2351ZM6.37246 13.4652C4.78885 14.8992 3.85843 16.8575 3.7834 18.9278L4.28307 18.9459C4.35303 17.0156 5.22055 15.1828 6.70807 13.8358L6.37246 13.4652ZM4.02528 19.1867L4.5987 19.205L4.61462 18.7052L4.0412 18.687L4.02528 19.1867ZM4.8565 18.9642C4.9214 17.1734 5.72623 15.4727 7.10667 14.2227L6.77106 13.8521C5.29453 15.1891 4.4268 17.0152 4.35682 18.946L4.8565 18.9642ZM7.10667 14.2227C8.4876 12.9723 10.336 12.2716 12.262 12.273L12.2624 11.773C10.2164 11.7715 8.24709 12.5155 6.77106 13.8521L7.10667 14.2227ZM12.262 12.273C14.188 12.2743 16.0353 12.9776 17.4142 14.23L17.7503 13.8599C16.2765 12.5212 14.3084 11.7744 12.2624 11.773L12.262 12.273ZM17.4142 14.23C18.7926 15.4819 19.5947 17.1837 19.6567 18.9745L20.1564 18.9572C20.0895 17.0263 19.2247 15.199 17.7503 13.8599L17.4142 14.23ZM19.9142 19.2158L20.4876 19.1983L20.4724 18.6986L19.899 18.716L19.9142 19.2158ZM4.8565 18.9642C4.921 17.1844 5.71629 15.4938 7.08109 14.246L6.74371 13.877C5.28381 15.2117 4.42637 17.0272 4.35682 18.946L4.8565 18.9642ZM7.08109 14.246C7.08959 14.2382 7.09811 14.2305 7.10667 14.2227L6.77106 13.8521C6.76192 13.8604 6.75281 13.8687 6.74371 13.877L7.08109 14.246ZM12.2622 12.273C12.2622 12.273 12.2622 12.273 12.2622 12.273H12.2622C12.2622 12.273 12.2622 12.273 12.2622 12.273C12.2622 12.273 12.2622 12.273 12.2622 12.273H12.2622C12.2622 12.023 12.2622 11.773 12.2622 11.773H12.2622H12.2622C12.2622 11.773 12.2622 11.773 12.2622 11.773C12.2622 11.773 12.2622 11.773 12.2622 11.773C12.2622 11.773 12.2622 11.773 12.2622 11.773C12.2622 11.773 12.2622 11.773 12.2622 11.773C12.2622 11.773 12.2622 11.773 12.2622 11.773H12.2622C12.2622 11.773 12.2622 11.773 12.2622 11.773C12.2622 11.773 12.2622 11.773 12.2622 11.773C12.2622 11.773 12.2622 12.023 12.2622 12.273C12.2622 12.273 12.2622 12.273 12.2622 12.273C12.2622 12.273 12.2622 12.273 12.2622 12.273C12.2622 12.273 12.2622 12.273 12.2622 12.273C12.2622 12.273 12.2622 12.273 12.2622 12.273H12.2622V11.773H12.2622C12.2622 11.773 12.2622 11.773 12.2622 11.773C12.2622 11.773 12.2622 11.773 12.2622 11.773C12.2622 11.773 12.2622 11.773 12.2622 11.773C12.2622 11.773 12.2622 11.773 12.2622 11.773C12.2622 12.023 12.2622 12.273 12.2622 12.273C12.2622 12.273 12.2622 12.273 12.2622 12.273C12.2622 12.273 12.2622 12.273 12.2622 12.273H12.2622C12.2622 12.273 12.2622 12.273 12.2622 12.273C12.2622 12.273 12.2622 12.273 12.2622 12.273C12.2622 12.273 12.2622 12.273 12.2622 12.273C12.2622 12.273 12.2622 12.273 12.2622 12.273C12.2622 12.273 12.2622 12.273 12.2622 12.273H12.2622H12.2622C12.2622 12.273 12.2622 12.023 12.2622 11.773H12.2622C12.2622 11.773 12.2622 11.773 12.2622 11.773C12.2622 11.773 12.2622 11.773 12.2622 11.773H12.2622C12.2622 11.773 12.2622 11.773 12.2622 11.773V12.273ZM17.4142 14.23C17.4227 14.2377 17.4312 14.2455 17.4397 14.2533L17.7777 13.8848C17.7686 13.8765 17.7595 13.8682 17.7504 13.8599L17.4142 14.23ZM17.4397 14.2533C18.8025 15.503 19.595 17.1948 19.6567 18.9746L20.1564 18.9572C20.0899 17.0383 19.2354 15.2216 17.7777 13.8848L17.4397 14.2533ZM19.6566 18.9659C19.6566 18.9659 19.6566 18.9659 19.6566 18.9659V18.9659C19.6566 18.9659 19.6566 18.9659 19.6566 18.9659C19.6566 18.9659 19.6566 18.9659 19.6566 18.9659C19.6566 18.9659 19.6566 18.9659 19.6566 18.9659C19.6566 18.9659 19.6566 18.9659 19.6566 18.9659C19.6566 18.9659 19.6566 18.9659 19.6566 18.9659C19.6566 18.9659 19.6566 18.9659 19.6566 18.9659V18.9659V18.9659C19.6566 18.9659 19.6566 18.9659 19.6566 18.9659C19.6566 18.9659 19.6566 18.9659 19.6566 18.9659C19.9066 18.9659 20.1566 18.9659 20.1566 18.9659C20.1566 18.9659 20.1566 18.9659 20.1566 18.9659C20.1566 18.9659 20.1566 18.9659 20.1566 18.9659C20.1566 18.9659 20.1566 18.9659 20.1566 18.9659C20.1566 18.9659 20.1566 18.9659 20.1566 18.9659V18.9659V18.9659C20.1566 18.9659 20.1566 18.9659 20.1566 18.9659C20.1566 18.9659 20.1566 18.9659 20.1566 18.9659V18.9659C20.1566 18.9659 20.1566 18.9659 20.1566 18.9659C20.1566 18.9659 20.1566 18.9659 20.1566 18.9659V18.9659C20.1566 18.9659 20.1566 18.9659 20.1566 18.9659C20.1566 18.9659 20.1566 18.9659 20.1566 18.9659C20.1566 18.9659 20.1566 18.9659 20.1566 18.9659V18.9659C20.1566 18.9659 20.1566 18.9659 20.1566 18.9659C20.1566 18.9659 20.1566 18.9659 20.1566 18.9659V18.9659C20.1566 18.9659 20.1566 18.9659 20.1566 18.9659C20.1566 18.9659 20.1566 18.9659 20.1566 18.9659C20.1566 18.9659 20.1566 18.9659 20.1566 18.9659V18.9659V18.9659C20.1566 18.9659 19.9066 18.9659 19.6566 18.9659V18.9659V18.9659V18.9659V18.9659C19.6566 18.9659 19.6566 18.9659 19.6566 18.9659C19.6566 18.9659 19.6566 18.9659 19.6566 18.9659C19.6566 18.9659 19.6566 18.9659 19.6566 18.9659V18.9659V18.9659C19.6566 18.9659 19.6566 18.9659 19.6566 18.9659C19.6566 18.9659 19.6566 18.9659 19.6566 18.9659C19.6566 18.9659 19.6566 18.9659 19.6566 18.9659H20.1566C20.1566 18.9659 20.1566 18.9659 20.1566 18.9659C20.1566 18.9659 20.1566 18.9659 20.1566 18.9659C20.1566 18.9659 20.1566 18.9659 20.1566 18.9659V18.9659V18.9659C20.1566 18.9659 20.1566 18.9659 20.1566 18.9659C20.1566 18.9659 20.1566 18.9659 20.1566 18.9659C20.1566 18.9659 20.1566 18.9659 20.1566 18.9659V18.9659V18.9659V18.9659V18.9659C19.9066 18.9659 19.6566 18.9659 19.6566 18.9659V18.9659V18.9659C19.6566 18.9659 19.6566 18.9659 19.6566 18.9659C19.6566 18.9659 19.6566 18.9659 19.6566 18.9659C19.6566 18.9659 19.6566 18.9659 19.6566 18.9659V18.9659C19.6566 18.9659 19.6566 18.9659 19.6566 18.9659C19.6566 18.9659 19.6566 18.9659 19.6566 18.9659V18.9659C19.6566 18.9659 19.6566 18.9659 19.6566 18.9659C19.6566 18.9659 19.6566 18.9659 19.6566 18.9659C19.6566 18.9659 19.6566 18.9659 19.6566 18.9659V18.9659C19.6566 18.9659 19.6566 18.9659 19.6566 18.9659C19.6566 18.9659 19.6566 18.9659 19.6566 18.9659V18.9659C19.6566 18.9659 19.6566 18.9659 19.6566 18.9659C19.6566 18.9659 19.6566 18.9659 19.6566 18.9659V18.9659V18.9659C19.6566 18.9659 19.6566 18.9659 19.6566 18.9659C19.6566 18.9659 19.6566 18.9659 19.6566 18.9659C19.6566 18.9659 19.6566 18.9659 19.6566 18.9659C19.6566 18.9659 19.6566 18.9659 19.6566 18.9659C19.6566 18.9659 19.9066 18.9659 20.1566 18.9659C20.1566 18.9659 20.1566 18.9659 20.1566 18.9659C20.1566 18.9659 20.1566 18.9659 20.1566 18.9659V18.9659V18.9659C20.1566 18.9659 20.1566 18.9659 20.1566 18.9659C20.1566 18.9659 20.1566 18.9659 20.1566 18.9659C20.1566 18.9659 20.1566 18.9659 20.1566 18.9659C20.1566 18.9659 20.1566 18.9659 20.1566 18.9659C20.1566 18.9659 20.1566 18.9659 20.1566 18.9659C20.1566 18.9659 20.1566 18.9659 20.1566 18.9659V18.9659C20.1566 18.9659 20.1566 18.9659 20.1566 18.9659H19.6566ZM20.7299 18.9399C20.7299 18.9395 20.7298 18.9381 20.7298 18.9372L20.2301 18.9549C20.2301 18.9555 20.2301 18.9558 20.2302 18.957L20.7299 18.9399ZM20.7298 18.9373C20.7173 18.5805 20.6794 18.227 20.6171 17.8788L20.1249 17.9668C20.1831 18.2919 20.2184 18.6218 20.2301 18.9548L20.7298 18.9373ZM20.6171 17.8788C20.3182 16.2076 19.4576 14.6615 18.1496 13.4735L17.8134 13.8437C19.0421 14.9596 19.846 16.4075 20.1249 17.9668L20.6171 17.8788ZM18.1496 13.4735C18.1405 13.4653 18.1313 13.457 18.1222 13.4488L17.7877 13.8204C17.7963 13.8281 17.8048 13.8359 17.8134 13.8437L18.1496 13.4735ZM18.1222 13.4488C16.5444 12.0286 14.445 11.2366 12.2628 11.2351L12.2624 11.7351C14.3254 11.7365 16.3046 12.4855 17.7877 13.8204L18.1222 13.4488ZM12.2628 11.2351C12.2628 11.2351 12.2628 11.2351 12.2628 11.2351C12.2628 11.2351 12.2628 11.2351 12.2628 11.2351C12.2628 11.2351 12.2628 11.2351 12.2628 11.2351C12.2628 11.2351 12.2628 11.2351 12.2628 11.2351C12.2628 11.2351 12.2628 11.2351 12.2628 11.2351C12.2628 11.2351 12.2628 11.2351 12.2628 11.2351C12.2629 11.2351 12.263 11.2351 12.2631 11.2351C12.5126 11.4853 12.2626 11.7351 12.2625 11.7351C12.2625 11.7351 12.2625 11.7351 12.2625 11.7351C12.2625 11.7351 12.2625 11.7351 12.2625 11.7351C12.2625 11.7351 12.2624 11.7351 12.2624 11.7351C12.2624 11.7351 12.2624 11.7351 12.2624 11.7351C12.2624 11.7351 12.2624 11.7351 12.2624 11.7351C12.2624 11.7351 12.2624 11.7351 12.2624 11.7351C12.2624 11.7351 12.2624 11.7351 12.2624 11.7351C12.2624 11.7351 12.2624 11.7351 12.2624 11.7351C12.2624 11.7351 12.2624 11.7351 12.2624 11.7351C12.2624 11.7351 12.2624 11.7351 12.2624 11.7351C12.2624 11.7351 12.2624 11.7351 12.2624 11.7351C12.2624 11.7351 12.2624 11.7351 12.2624 11.7351C12.2623 11.7351 12.0126 11.485 12.2625 11.2351C12.2626 11.2351 12.2627 11.2351 12.2627 11.2351C12.2628 11.2351 12.2628 11.2351 12.2628 11.2351C12.2628 11.2351 12.2628 11.2351 12.2628 11.2351C12.2628 11.2351 12.2628 11.2351 12.2628 11.2351C12.2628 11.2351 12.2628 11.2351 12.2628 11.2351C12.2628 11.2351 12.2628 11.2351 12.2628 11.2351C12.2628 11.2351 12.2628 11.2351 12.2628 11.2351L12.2624 11.7351C12.2624 11.7351 12.2625 11.7351 12.2625 11.7351H12.2625C12.2625 11.7351 12.2625 11.7351 12.2625 11.7351C12.2625 11.7351 12.2625 11.7351 12.2625 11.7351C12.2625 11.7351 12.2625 11.7351 12.2625 11.7351C12.2625 11.7351 12.2625 11.7351 12.2625 11.7351C12.2625 11.7351 12.2625 11.7351 12.2625 11.7351C12.2625 11.7351 12.2626 11.7351 12.2628 11.7351C12.5126 11.4852 12.2629 11.2351 12.2629 11.2351C12.2629 11.2351 12.2628 11.2351 12.2628 11.2351C12.2628 11.2351 12.2628 11.2351 12.2628 11.2351C12.2628 11.2351 12.2628 11.2351 12.2628 11.2351C12.2628 11.2351 12.2628 11.2351 12.2628 11.2351C12.2628 11.2351 12.2628 11.2351 12.2628 11.2351C12.2628 11.2351 12.2628 11.2351 12.2628 11.2351C12.2628 11.2351 12.2628 11.2351 12.2628 11.2351C12.2628 11.2351 12.2628 11.2351 12.2628 11.2351C12.2628 11.2351 12.2628 11.2351 12.2628 11.2351C12.2628 11.2351 12.2628 11.2351 12.2628 11.2351C12.2628 11.2351 12.2628 11.2351 12.2628 11.2351C12.2627 11.2351 12.2627 11.2351 12.2627 11.2351C12.2626 11.2351 12.0126 11.4849 12.2621 11.7351C12.2622 11.7351 12.2624 11.7351 12.2624 11.7351C12.2624 11.7351 12.2624 11.7351 12.2624 11.7351C12.2624 11.7351 12.2624 11.7351 12.2624 11.7351C12.2624 11.7351 12.2624 11.7351 12.2624 11.7351C12.2624 11.7351 12.2624 11.7351 12.2624 11.7351C12.2624 11.7351 12.2624 11.7351 12.2624 11.7351C12.2624 11.7351 12.2624 11.7351 12.2624 11.7351C12.2624 11.7351 12.2624 11.7351 12.2624 11.7351L12.2628 11.2351ZM12.2628 11.2351C10.0806 11.2336 7.97988 12.0225 6.39986 13.4405L6.73381 13.8126C8.219 12.4798 10.1995 11.7336 12.2624 11.7351L12.2628 11.2351ZM6.39986 13.4405C6.39071 13.4487 6.38158 13.4569 6.37246 13.4652L6.70807 13.8358C6.71663 13.8281 6.72521 13.8203 6.73381 13.8126L6.39986 13.4405ZM6.37246 13.4652C5.06255 14.6513 4.19949 16.1962 3.89785 17.8669L4.38989 17.9558C4.67135 16.3969 5.47753 14.9501 6.70807 13.8358L6.37246 13.4652ZM3.89785 17.8669C3.835 18.215 3.79655 18.5685 3.7835 18.9252L4.28316 18.9435C4.29534 18.6106 4.33123 18.2807 4.38989 17.9558L3.89785 17.8669ZM3.7835 18.9252C3.78346 18.9261 3.78343 18.9269 3.7834 18.9278L4.28307 18.9459C4.2831 18.9451 4.28313 18.9443 4.28316 18.9435L3.7835 18.9252ZM10.7066 10.9678C10.7033 10.4251 10.9015 10.0606 11.1707 9.82621L10.8424 9.44912C10.4578 9.78393 10.2025 10.2899 10.2066 10.9708L10.7066 10.9678ZM10.2025 11.4779C10.4825 11.4763 10.7082 11.2479 10.7066 10.9678L10.2066 10.9708C10.2066 10.9747 10.2034 10.9779 10.1995 10.978L10.2025 11.4779ZM9.69233 10.9739C9.69399 11.2539 9.92239 11.4796 10.2025 11.4779L10.1995 10.978C10.1955 10.978 10.1923 10.9748 10.1923 10.9709L9.69233 10.9739ZM10.5047 9.06128C10.0014 9.49948 9.68743 10.151 9.69233 10.9739L10.1923 10.9709C10.1882 10.2861 10.4452 9.77605 10.833 9.43838L10.5047 9.06128ZM12.2605 8.43993C11.6391 8.435 10.9975 8.63224 10.5047 9.06128L10.833 9.43838C11.2207 9.10083 11.7387 8.93581 12.2566 8.93992L12.2605 8.43993ZM14.0094 9.08067C13.5201 8.65209 12.8819 8.44487 12.2605 8.43993L12.2566 8.93992C12.7744 8.94403 13.2924 9.11727 13.68 9.45679L14.0094 9.08067ZM14.8207 10.9736C14.8256 10.1634 14.5089 9.51812 14.0094 9.08067L13.68 9.45679C14.0678 9.79645 14.3248 10.3023 14.3207 10.9706L14.8207 10.9736ZM14.3105 11.4776C14.5905 11.4793 14.819 11.2537 14.8207 10.9736L14.3207 10.9706C14.3206 10.9745 14.3174 10.9777 14.3135 10.9776L14.3105 11.4776ZM13.8064 10.9674C13.8047 11.2475 14.0304 11.4759 14.3105 11.4776L14.3135 10.9776C14.3096 10.9776 14.3064 10.9744 14.3064 10.9705L13.8064 10.9674ZM13.3412 9.84363C13.6142 10.0828 13.8096 10.4451 13.8064 10.9674L14.3064 10.9705C14.3105 10.3062 14.0552 9.80438 13.6706 9.46751L13.3412 9.84363ZM12.2525 9.45415C12.6636 9.45741 13.058 9.5956 13.3412 9.84363L13.6706 9.46751C13.2859 9.13053 12.7713 8.95825 12.2564 8.95416L12.2525 9.45415ZM11.1707 9.82621C11.4504 9.58266 11.8414 9.45088 12.2525 9.45415L12.2564 8.95416C11.7416 8.95008 11.227 9.11419 10.8424 9.44912L11.1707 9.82621Z" fill="#333333"/>
<path d="M7.55279 15.7764C7.42929 16.0234 7.5294 16.3237 7.77639 16.4472C8.02338 16.5707 8.32372 16.4706 8.44721 16.2236L7.55279 15.7764ZM11.5 14.5C11.7761 14.5 12 14.2761 12 14C12 13.7239 11.7761 13.5 11.5 13.5V14.5ZM8.44721 16.2236C8.64356 15.8309 9.06443 15.3944 9.63225 15.0537C10.1952 14.716 10.8573 14.5 11.5 14.5V13.5C10.6427 13.5 9.80481 13.784 9.11775 14.1963C8.43557 14.6056 7.85644 15.1691 7.55279 15.7764L8.44721 16.2236Z" fill="#333333"/>
</svg>
