<svg width="18" height="16" viewBox="0 0 18 16" fill="none" xmlns="http://www.w3.org/2000/svg">
<path d="M15.5966 2.60611L15.5965 2.60609C15.0258 2.04881 14.1928 1.71423 12.9653 1.71423C12.6905 1.71423 12.3971 1.76163 12.0814 1.8668L15.5966 2.60611ZM15.5966 2.60611C16.1629 3.15912 16.5 3.96338 16.5 5.15388C16.5 6.18285 15.97 7.36422 14.627 8.70913L9.00034 14.1282L3.35732 8.68397L3.32365 8.65149L3.2871 8.6223C3.28718 8.62236 3.28605 8.62146 3.28361 8.6194L3.27338 8.61052C3.2644 8.60259 3.25246 8.59171 3.23729 8.57737C3.20676 8.54852 3.16776 8.51001 3.1194 8.46033C3.04522 8.3838 2.89581 8.2103 2.65651 7.91115L2.65647 7.91111C2.44294 7.6442 2.2537 7.3725 2.08805 7.09639L2.08803 7.09637C1.94507 6.8581 1.80387 6.54632 1.67238 6.14889L1.67234 6.14879C1.55343 5.78948 1.5 5.45913 1.5 5.1539C1.5 3.96335 1.83703 3.15911 2.4034 2.60612L2.40343 2.60609M15.5966 2.60611L2.40343 2.60609M11.1768 2.30371L11.1762 2.30412C10.8444 2.52217 10.5688 2.72073 10.3452 2.8994C10.121 3.07885 9.90829 3.26925 9.70705 3.47046L9.00015 4.17725L8.2931 3.47061C8.09154 3.26917 7.87874 3.0787 7.65457 2.89928L11.1768 2.30371ZM11.1768 2.30371C11.453 2.12188 11.7538 1.97603 12.0813 1.86683L11.1768 2.30371ZM6.8235 2.30393L6.82337 2.30384C6.54682 2.1219 6.24612 1.97614 5.91854 1.86686L6.8235 2.30393ZM6.8235 2.30393C7.15557 2.52233 7.4311 2.72064 7.6542 2.89898L6.8235 2.30393ZM2.40343 2.60609C2.97407 2.04888 3.80716 1.71423 5.03454 1.71423C5.30917 1.71423 5.6025 1.76162 5.91822 1.86675L2.40343 2.60609Z" fill="#FA4B4B" stroke="#FA4B4B" stroke-width="2"/>
</svg>
