<svg width="10" height="10" viewBox="0 0 10 10" fill="none" xmlns="http://www.w3.org/2000/svg">
<path d="M9.864 3.58957C9.83292 3.49702 9.7757 3.41569 9.69942 3.35563C9.62315 3.29558 9.53114 3.25942 9.43476 3.25162L6.61556 3.02515L5.39561 0.29501C5.35676 0.207078 5.29356 0.132392 5.21365 0.079967C5.13374 0.027542 5.04053 -0.000381943 4.94527 -0.0004348C4.85001 -0.000487658 4.75677 0.0273329 4.6768 0.0796692C4.59683 0.132006 4.53356 0.206621 4.49461 0.29451L3.27466 3.02515L0.455456 3.25162C0.360736 3.2592 0.270182 3.29422 0.19463 3.35247C0.119077 3.41072 0.0617243 3.48975 0.0294329 3.58009C-0.00285845 3.67043 -0.00872115 3.76827 0.0125463 3.86189C0.0338138 3.95551 0.0813108 4.04096 0.149355 4.108L2.23272 6.16123L1.49591 9.3868C1.47353 9.48444 1.4807 9.58662 1.51649 9.68009C1.55227 9.77355 1.61501 9.85399 1.69658 9.91095C1.77814 9.96792 1.87476 9.99879 1.97389 9.99955C2.07302 10.0003 2.17009 9.97094 2.2525 9.91524L4.94511 8.10048L7.63772 9.91524C7.72195 9.97177 7.82129 10.0009 7.92237 9.99864C8.02346 9.9964 8.12144 9.96292 8.20314 9.9027C8.28484 9.84248 8.34634 9.75841 8.37937 9.6618C8.41239 9.56519 8.41537 9.46068 8.38789 9.36231L7.48343 6.16273L9.72653 4.122C9.87339 3.98802 9.9273 3.77905 9.864 3.58957V3.58957Z" fill="white"/>
</svg>
