<svg width="24" height="24" viewBox="0 0 24 24" fill="none" xmlns="http://www.w3.org/2000/svg">
<path d="M7.55838 14.0983L7.5 14.0563L7.44162 14.0983L6.85 14.5237V5.25C6.85 4.06623 7.81623 3.1 9 3.1H9.65V4.4H9C8.53227 4.4 8.15 4.78227 8.15 5.25V14.5237L7.55838 14.0983ZM15.75 6.1H15.85V6V5.25C15.85 4.06623 16.8162 3.1 18 3.1H18.65V4.4H18C17.5323 4.4 17.15 4.78227 17.15 5.25V14.5237L16.5584 14.0983L16.5 14.0563L16.4416 14.0983L15.85 14.5237V13.5V13.4H15.75H9.1V12.1H15.75H15.85V12V10.5V10.4H15.75H9.1V9.1H15.75H15.85V9V7.5V7.4H15.75H9.1V6.1H15.75ZM7.96875 15.9142L7.90971 15.995L7.90978 15.995L7.90999 15.9952L7.91061 15.9956L7.91275 15.9972L7.92045 16.0026C7.9271 16.0073 7.93676 16.014 7.94927 16.0224C7.9743 16.0392 8.01078 16.063 8.05756 16.0913C8.15107 16.1479 8.28603 16.2232 8.4531 16.2983C8.78646 16.4483 9.25197 16.6 9.77325 16.6C10.2948 16.6 10.749 16.4482 11.0714 16.2977C11.2329 16.2224 11.3623 16.147 11.4516 16.0901C11.4963 16.0617 11.531 16.0379 11.5548 16.0209C11.5667 16.0125 11.5759 16.0058 11.5823 16.001L11.5896 15.9955L11.5917 15.9939L11.5923 15.9934L11.5925 15.9933L11.5926 15.9932L11.5312 15.9142L11.5927 15.9932L11.5937 15.9923L12 15.6673L12.4063 15.9923L12.4062 15.9924L12.4096 15.9949L12.4688 15.9142L12.4097 15.995L12.4098 15.995L12.41 15.9952L12.4106 15.9956L12.4127 15.9972L12.4205 16.0026C12.4271 16.0073 12.4368 16.014 12.4493 16.0224C12.4743 16.0392 12.5108 16.063 12.5576 16.0913C12.6511 16.1479 12.786 16.2232 12.9531 16.2983C13.2865 16.4483 13.752 16.6 14.2733 16.6C14.7948 16.6 15.249 16.4482 15.5714 16.2977C15.7329 16.2224 15.8623 16.147 15.9516 16.0901C15.9963 16.0617 16.031 16.0379 16.0548 16.0209C16.0667 16.0125 16.0759 16.0058 16.0823 16.001L16.0896 15.9955L16.0917 15.9939L16.0923 15.9934L16.0925 15.9933L16.0926 15.9932L16.0312 15.9142L16.0927 15.9932L16.0937 15.9923L16.5 15.6673L16.9063 15.9923L16.9062 15.9924L16.9096 15.9949L16.9688 15.9142L16.9097 15.995L16.9098 15.995L16.91 15.9952L16.9106 15.9956L16.9127 15.9972L16.9205 16.0026C16.9271 16.0073 16.9368 16.014 16.9493 16.0224C16.9743 16.0392 17.0108 16.063 17.0576 16.0913C17.1511 16.1479 17.286 16.2232 17.4531 16.2983C17.7865 16.4483 18.252 16.6 18.7733 16.6C19.2948 16.6 19.749 16.4482 20.0714 16.2977C20.2329 16.2224 20.3623 16.147 20.4516 16.0901C20.4744 16.0756 20.4947 16.0623 20.5122 16.0505L21.3266 17.0681C21.2972 17.0894 21.2599 17.1156 21.2151 17.1453C21.0895 17.2289 20.9053 17.3408 20.6723 17.4527C20.2058 17.6769 19.5469 17.9 18.7733 17.9C17.6936 17.9 16.9789 17.5427 16.5522 17.2817L16.4996 17.2495L16.4472 17.2821C16.0224 17.5462 15.344 17.9 14.2733 17.9C13.1936 17.9 12.4789 17.5427 12.0522 17.2817L11.9996 17.2495L11.9472 17.2821C11.5224 17.5462 10.844 17.9 9.77325 17.9C8.69356 17.9 7.9789 17.5427 7.55218 17.2817L7.49957 17.2495L7.4472 17.2821C7.02237 17.5462 6.34399 17.9 5.27325 17.9C4.49983 17.9 3.82905 17.6768 3.35043 17.4523C3.11137 17.3402 2.92108 17.2282 2.79093 17.1445C2.74419 17.1144 2.70524 17.088 2.67462 17.0666L3.48925 16.0487C3.5087 16.0612 3.53154 16.0755 3.55756 16.0913C3.65107 16.1479 3.78603 16.2232 3.9531 16.2983C4.28646 16.4483 4.75197 16.6 5.27325 16.6C5.79479 16.6 6.249 16.4482 6.5714 16.2977C6.7329 16.2224 6.86225 16.147 6.95158 16.0901C6.99626 16.0617 7.03101 16.0379 7.05483 16.0209C7.06675 16.0125 7.07594 16.0058 7.08228 16.001L7.08964 15.9955L7.0917 15.9939L7.09231 15.9934L7.09251 15.9933L7.09259 15.9932L7.03125 15.9142L7.09266 15.9932L7.09372 15.9923L7.5 15.6673L7.90628 15.9923L7.90622 15.9924L7.90965 15.9949L7.96875 15.9142ZM7.96875 18.9142L7.90971 18.995L7.90978 18.995L7.90999 18.9952L7.91061 18.9956L7.91275 18.9972L7.92045 19.0026C7.9271 19.0073 7.93676 19.014 7.94927 19.0224C7.9743 19.0392 8.01078 19.063 8.05756 19.0913C8.15107 19.1479 8.28603 19.2232 8.4531 19.2983C8.78646 19.4483 9.25197 19.6 9.77325 19.6C10.2948 19.6 10.749 19.4482 11.0714 19.2977C11.2329 19.2224 11.3623 19.147 11.4516 19.0901C11.4963 19.0617 11.531 19.0379 11.5548 19.021C11.5667 19.0125 11.5759 19.0058 11.5823 19.001L11.5896 18.9955L11.5917 18.9939L11.5923 18.9934L11.5925 18.9933L11.5926 18.9932L11.5312 18.9142L11.5927 18.9932L11.5937 18.9923L12 18.6673L12.4063 18.9923L12.4062 18.9924L12.4096 18.9949L12.4688 18.9142L12.4097 18.995L12.4098 18.995L12.41 18.9952L12.4106 18.9956L12.4127 18.9972L12.4205 19.0026C12.4271 19.0073 12.4368 19.014 12.4493 19.0224C12.4743 19.0392 12.5108 19.063 12.5576 19.0913C12.6511 19.1479 12.786 19.2232 12.9531 19.2983C13.2865 19.4483 13.752 19.6 14.2733 19.6C14.7948 19.6 15.249 19.4482 15.5714 19.2977C15.7329 19.2224 15.8623 19.147 15.9516 19.0901C15.9963 19.0617 16.031 19.0379 16.0548 19.021C16.0667 19.0125 16.0759 19.0058 16.0823 19.001L16.0896 18.9955L16.0917 18.9939L16.0923 18.9934L16.0925 18.9933L16.0926 18.9932L16.0312 18.9142L16.0927 18.9932L16.0937 18.9923L16.5 18.6673L16.9063 18.9923L16.9062 18.9924L16.9096 18.9949L16.9688 18.9142L16.9097 18.995L16.9098 18.995L16.91 18.9952L16.9106 18.9956L16.9127 18.9972L16.9205 19.0026C16.9271 19.0073 16.9368 19.014 16.9493 19.0224C16.9743 19.0392 17.0108 19.063 17.0576 19.0913C17.1511 19.1479 17.286 19.2232 17.4531 19.2983C17.7865 19.4483 18.252 19.6 18.7733 19.6C19.2948 19.6 19.749 19.4482 20.0714 19.2977C20.2329 19.2224 20.3623 19.147 20.4516 19.0901C20.4744 19.0756 20.4947 19.0623 20.5122 19.0505L21.3266 20.0681C21.2972 20.0894 21.2599 20.1156 21.2151 20.1453C21.0895 20.2289 20.9053 20.3408 20.6723 20.4527C20.2058 20.6769 19.5469 20.9 18.7733 20.9C17.6936 20.9 16.9789 20.5427 16.5522 20.2817L16.4996 20.2495L16.4472 20.2821C16.0224 20.5462 15.344 20.9 14.2733 20.9C13.1936 20.9 12.4789 20.5427 12.0522 20.2817L11.9996 20.2495L11.9472 20.2821C11.5224 20.5462 10.844 20.9 9.77325 20.9C8.69356 20.9 7.9789 20.5427 7.55218 20.2817L7.49957 20.2495L7.4472 20.2821C7.02237 20.5462 6.34399 20.9 5.27325 20.9C4.49983 20.9 3.82905 20.6768 3.35043 20.4523C3.11137 20.3402 2.92108 20.2282 2.79093 20.1445C2.74419 20.1144 2.70524 20.088 2.67462 20.0666L3.48925 19.0487C3.5087 19.0612 3.53154 19.0755 3.55756 19.0913C3.65107 19.1479 3.78603 19.2232 3.9531 19.2983C4.28646 19.4483 4.75197 19.6 5.27325 19.6C5.79479 19.6 6.249 19.4482 6.5714 19.2977C6.7329 19.2224 6.86225 19.147 6.95158 19.0901C6.99626 19.0617 7.03101 19.0379 7.05483 19.021C7.06675 19.0125 7.07594 19.0058 7.08228 19.001L7.08964 18.9955L7.0917 18.9939L7.09231 18.9934L7.09251 18.9933L7.09259 18.9932L7.03125 18.9142L7.09266 18.9932L7.09372 18.9923L7.5 18.6673L7.90628 18.9923L7.90622 18.9924L7.90965 18.9949L7.96875 18.9142Z" fill="#333333" stroke="white" stroke-width="0.2"/>
</svg>
